<svg xmlns="http://www.w3.org/2000/svg" width="63" height="62" viewBox="0 0 63 62" fill="none"><g clip-path="url(#clip0_870_3218)"><path d="M34.7663 9.16124C33.6334 9.1479 32.5377 9.5467 31.6803 10.2844C31.2298 10.6812 30.8636 11.1645 30.6035 11.7056C30.3434 12.2467 30.1948 12.8345 30.1663 13.4342C30.1041 14.014 30.1755 14.6003 30.3749 15.1482C30.5743 15.6962 30.8965 16.1912 31.3169 16.5953C31.444 16.712 31.6111 16.7752 31.7836 16.7721C31.9561 16.7689 32.1208 16.6995 32.2435 16.5782C32.3662 16.4569 32.4376 16.2931 32.4429 16.1207C32.4481 15.9482 32.3869 15.7804 32.2718 15.6518C32.0382 15.3593 31.8745 15.0173 31.7932 14.6518C31.7118 14.2864 31.7149 13.9073 31.8023 13.5433C31.866 13.1897 32.0012 12.8529 32.1996 12.5534C32.398 12.2539 32.6554 11.9981 32.9562 11.8016C33.4839 11.4797 34.1009 11.3445 34.7128 11.4176C35.2802 11.4388 35.8182 11.6772 36.2134 12.0846C36.6877 12.5398 37.0076 13.1321 37.127 13.7761C37.1792 14.0845 37.1689 14.4003 37.0969 14.7047C37.025 15.0091 36.8927 15.296 36.7079 15.5484C36.4158 15.9739 35.7462 16.4731 35.3788 16.9899C35.2191 17.1912 35.0929 17.4168 35.0048 17.6581C34.9247 17.9431 34.9029 18.2413 34.9408 18.5349C34.9893 18.8809 35.0771 19.2202 35.2025 19.5463C35.2843 19.6899 35.4143 19.7998 35.5694 19.8567C35.7245 19.9136 35.8947 19.9138 36.05 19.8573C36.2052 19.8008 36.3355 19.6912 36.4177 19.5479C36.4999 19.4047 36.5288 19.2369 36.4993 19.0744C36.418 18.9058 36.3538 18.7295 36.3077 18.5481C36.3034 18.4192 36.321 18.2922 36.3606 18.1671L37.9682 16.7306C38.3724 16.306 38.6855 15.8033 38.8883 15.2533C39.0911 14.7033 39.1793 14.1177 39.1475 13.5324C39.0397 12.4203 38.5832 11.3707 37.8432 10.5336C37.4483 10.1108 36.9726 9.77168 36.4441 9.53626C35.9157 9.30083 35.3454 9.17394 34.767 9.16312M36.2741 21.4379C35.9802 21.5781 35.7316 21.7979 35.5565 22.0723C35.3813 22.3468 35.2867 22.6649 35.2833 22.9904C35.3127 23.1808 35.3817 23.363 35.4858 23.5252C35.5899 23.6874 35.7268 23.8259 35.8877 23.932C36.0486 24.038 36.2299 24.1092 36.42 24.1409C36.6101 24.1726 36.8047 24.1642 36.9913 24.1161C37.33 23.9839 37.6201 23.7512 37.8226 23.4492C38.0251 23.1472 38.1302 22.7904 38.1239 22.4269C38.0677 22.2403 37.9753 22.0665 37.8518 21.9157C37.7283 21.7649 37.5763 21.64 37.4044 21.5481C37.2326 21.4562 37.0442 21.3992 36.8502 21.3803C36.6563 21.3614 36.4605 21.381 36.2741 21.4379ZM19.2751 35.3148C18.3083 35.6881 17.3773 36.1481 16.4934 36.6891C16.3438 36.7435 16.222 36.8551 16.1548 36.9993C16.0875 37.1435 16.0803 37.3086 16.1348 37.4581C16.1892 37.6076 16.3008 37.7294 16.445 37.7967C16.5892 37.8639 16.7543 37.8711 16.9038 37.8167C18.1085 37.3782 18.9748 37.3609 20.4477 36.7822C21.221 36.4496 21.9701 36.0632 22.6894 35.6258C22.7716 35.5932 22.8465 35.5444 22.9095 35.4822C22.9725 35.4201 23.0224 35.3459 23.0561 35.2642C23.0899 35.1824 23.1069 35.0946 23.1061 35.0062C23.1052 34.9177 23.0866 34.8303 23.0514 34.7491C23.0207 34.6644 22.973 34.5868 22.9112 34.5212C22.8493 34.4555 22.7747 34.4033 22.692 34.3676C22.6092 34.3319 22.52 34.3136 22.4298 34.3137C22.3397 34.3138 22.2505 34.3324 22.1678 34.3683C21.4913 34.6146 20.8864 34.707 20.3721 34.8729C19.8578 35.0388 19.6084 35.1722 19.2751 35.3148ZM19.0872 44.9267C19.1447 45.0722 19.2534 45.1916 19.3929 45.2624C19.5324 45.3332 19.693 45.3505 19.8443 45.3109C21.1481 45.0279 22.5186 44.6356 23.8923 44.1994L26.4674 43.3686L28.9689 42.4581C30.9218 41.6196 32.8696 40.5914 34.5715 39.823C34.7409 39.7613 34.879 39.6348 34.9552 39.4714C35.0314 39.3079 35.0396 39.1209 34.9779 38.9514C34.9107 38.782 34.7801 38.6455 34.6138 38.5709C34.4476 38.4963 34.2587 38.4895 34.0875 38.5519C32.2968 39.0759 30.2292 39.6582 28.1651 40.3669L25.7013 41.2637L19.4785 44.1245C19.3978 44.1479 19.3229 44.1879 19.2587 44.242C19.1944 44.2961 19.1423 44.3632 19.1056 44.4387C19.0689 44.5143 19.0484 44.5967 19.0456 44.6806C19.0428 44.7646 19.0557 44.8489 19.0872 44.9267Z" fill="#0E92BA"></path><path d="M41.1751 35.3122C41.0038 35.3745 40.8636 35.5011 40.7842 35.6651C40.7048 35.8291 40.6925 36.0176 40.7499 36.1906C41.2698 37.6189 41.6621 38.9894 41.9314 40.0215C42.1064 40.6146 42.2469 41.2172 42.3521 41.8265C42.3803 41.8724 42.3989 41.9236 42.4068 41.9768C42.1249 42.0795 41.58 42.5119 40.9598 42.7377C38.5692 43.6078 34.5793 44.762 32.6468 45.4228C32.24 45.5306 31.8437 45.6748 31.4628 45.8537C31.2335 45.9673 31.0541 46.1614 30.9589 46.399C30.6435 47.1757 30.5524 48.6795 30.1604 50.5908C29.982 51.422 29.7213 52.2263 29.3786 53.0038C28.7893 54.1013 27.9179 55.0217 26.8542 55.67C26.8878 54.5477 26.7525 53.4268 26.4527 52.3447C26.2149 51.1948 25.6594 50.1347 24.8494 49.2846C24.4807 48.9301 23.9964 48.7209 23.4856 48.6955C22.8093 48.7367 22.1429 48.8788 21.5086 49.1171L16.3535 50.9934C16.1759 51.0209 15.9966 51.0363 15.8169 51.0397C15.7167 50.7058 15.5979 50.3794 15.4606 50.0605C13.9921 46.6107 10.9012 38.9371 9.86571 35.5659C9.67417 35.0397 9.7526 34.4365 9.63465 34.2879C10.5943 33.6335 11.6267 33.0927 12.7111 32.6765C14.4505 31.8944 16.5743 31.0576 18.5735 30.2874C18.7198 30.2288 18.8383 30.1167 18.9049 29.9738C18.9715 29.831 18.9813 29.6681 18.9321 29.5184C18.9046 29.4427 18.8621 29.3733 18.8073 29.3144C18.7524 29.2555 18.6863 29.2082 18.6128 29.1754C18.5393 29.1426 18.4599 29.1249 18.3794 29.1234C18.2989 29.1218 18.2189 29.1365 18.1443 29.1666L11.1473 31.7133C9.98005 32.101 8.91978 32.7566 8.05133 33.6276C7.92292 34.052 7.91772 34.5041 8.03634 34.9314C8.60667 37.2148 9.29181 39.468 10.0891 41.6824L13.6701 51.521C13.8075 51.8867 13.971 52.2387 14.1608 52.5768C14.2799 52.8187 14.4713 53.0175 14.7084 53.1458C15.5391 53.3522 16.4121 53.3005 17.2118 53.0009C19.141 52.4477 23.3255 50.7757 23.3921 50.9004C23.9861 51.9825 24.3664 53.1679 24.5138 54.3913C24.6236 55.3999 24.516 56.4203 24.1982 57.3837C24.1369 57.5411 24.112 57.7103 24.1254 57.8787C24.1387 58.047 24.19 58.2102 24.2754 58.356C24.3874 58.5657 24.5655 58.7327 24.7821 58.8309C24.9988 58.9291 25.2417 58.953 25.4733 58.899C25.7842 58.8369 26.0786 58.7298 26.3566 58.5775C28.4415 57.5872 30.1695 55.9771 31.3042 53.9673C31.6978 53.0564 31.9864 52.1128 32.1702 51.1364C32.4842 49.6599 32.4985 48.3543 32.6606 47.5717L33.0947 47.4137C34.8614 46.7707 38.7864 45.491 41.3152 44.4217C42.078 44.1511 42.803 43.8021 43.4902 43.3746C43.6657 43.2532 43.8036 43.0851 43.8882 42.8892C44.0252 42.2774 43.9851 41.6408 43.7735 41.0537C43.4673 39.8031 42.8253 37.8637 42.0448 35.7193C41.9831 35.5498 41.8566 35.4118 41.6932 35.3356C41.5297 35.2594 41.3427 35.2512 41.1732 35.3129" fill="#0E92BA"></path><path d="M46.2898 2.75264C46.1109 2.37699 45.8194 2.06648 45.4557 1.86436C44.1522 1.73789 42.8369 1.90395 41.6058 2.35042C37.2376 3.57635 29.9945 6.21264 28.9796 6.58202C26.5157 7.4788 22.96 9.0071 20.3337 10.2822C18.9173 10.8682 17.61 11.6894 16.4673 12.7111C16.3277 12.9637 16.2695 13.2532 16.3008 13.5401C16.3692 13.728 16.4188 14.1569 16.5745 14.76C17.1301 16.7543 18.5578 21.0277 19.9836 24.7697C20.7852 27.0305 21.74 29.225 22.848 31.353C23.0629 31.7622 23.3805 32.1085 23.7676 32.3592C24.0096 32.4627 24.2746 32.5067 24.5365 32.4837C25.3544 32.3449 26.1467 32.1204 26.9135 31.8101C29.4338 30.8928 33.2628 29.1799 35.0313 28.5362L35.4824 28.372C36.1592 28.8281 37.0477 29.8072 38.2835 30.7409C39.056 31.3351 39.88 31.8447 40.7554 32.2696C42.6107 32.9839 44.6368 33.129 46.5749 32.6863C47.0321 32.6051 47.4763 32.4789 47.9078 32.3076C48.0753 32.2459 48.2165 32.1285 48.3079 31.9752C48.3992 31.8218 48.4353 31.6418 48.4099 31.4651C48.3982 31.3605 48.36 31.2606 48.299 31.1748C48.238 31.089 48.1562 31.0202 48.0612 30.9748C46.9238 30.2675 45.9861 29.2813 45.337 28.1097C44.8358 27.3174 44.5108 26.4247 44.3855 25.4955C44.2279 24.1269 45.4071 24.6767 50.7911 22.3766C51.5188 22.1328 52.1611 21.6848 52.6412 21.086C52.7048 20.8889 52.7163 20.6786 52.6745 20.4758C52.6061 20.2878 52.4488 19.8556 52.3326 19.2381C51.6265 16.8304 49.8944 11.6036 48.4565 7.65311C47.819 5.98347 47.0958 4.34781 46.2898 2.75264ZM50.8763 19.915C50.9501 20.0868 51.014 20.2622 51.0678 20.4412C50.8465 20.6451 50.6049 20.8258 50.3467 20.9804C45.2437 23.3507 41.4544 22.7696 43.8502 27.9485C44.4329 29.222 45.2633 30.3692 46.2909 31.3212C44.7247 31.6362 43.1006 31.4868 41.6181 30.8914C40.8646 30.5113 40.1505 30.0576 39.4863 29.5369C38.0174 28.3667 37.0081 27.1782 36.3382 26.741C36.1225 26.632 35.8777 26.5944 35.6393 26.6335C35.2332 26.746 34.8367 26.8903 34.4534 27.0652C32.5721 27.7499 28.6883 29.3125 26.2517 30.0503L24.8421 30.3293C24.6848 29.897 23.9421 28.9733 23.5163 27.979C21.9965 24.2712 19.8806 17.99 18.9283 14.9057L18.5316 13.8157L18.7383 13.7405C19.5601 13.2498 20.8911 12.5738 22.3298 11.9012C24.7135 10.7782 27.1364 9.74733 29.5985 8.80864C30.3314 8.54186 34.8347 6.75168 38.8526 5.44042C40.4666 4.86149 42.1087 4.37732 43.7789 3.98793C43.9967 3.96257 44.216 3.9608 44.4367 3.98261C44.5686 4.20846 44.6888 4.44138 44.7975 4.68137C45.4079 5.94905 46.2379 8.05412 47.0772 10.2431C48.6629 13.8396 50.1897 18.0344 50.8744 19.9157" fill="#0E92BA"></path></g><defs><clipPath id="clip0_870_3218"><rect width="48" height="48" fill="white" transform="translate(0.875 16.8113) rotate(-20)"></rect></clipPath></defs></svg>