<svg xmlns="http://www.w3.org/2000/svg" width="57" height="57" viewBox="0 0 57 57" fill="none"><g clip-path="url(#clip0_870_3250)"><path d="M46.9139 14.4622C46.4806 14.3858 43.5493 13.5034 41.2908 12.963L38.7323 12.5118L31.8357 12.0269C31.758 12.0182 31.6793 12.0254 31.6044 12.0479C31.5295 12.0704 31.4599 12.1079 31.3998 12.158C31.3398 12.2081 31.2905 12.2699 31.2549 12.3396C31.2193 12.4092 31.1982 12.4854 31.1928 12.5634C31.1841 12.6412 31.1913 12.7199 31.2138 12.7948C31.2363 12.8697 31.2738 12.9393 31.3239 12.9993C31.374 13.0594 31.4358 13.1087 31.5055 13.1443C31.5751 13.1798 31.6513 13.201 31.7293 13.2063C33.2459 13.4738 34.6119 14.0193 37.0758 14.5349L40.8575 15.2017C43.1994 15.6147 46.3186 15.8804 46.8249 15.8884C46.9122 15.8989 47.0008 15.8914 47.085 15.8662C47.1693 15.8409 47.2474 15.7986 47.3146 15.7419C47.3818 15.6851 47.4365 15.6151 47.4755 15.5363C47.5144 15.4574 47.5366 15.3714 47.5408 15.2835C47.5614 15.1875 47.5609 15.0882 47.5394 14.9924C47.518 14.8966 47.476 14.8066 47.4164 14.7286C47.3569 14.6505 47.2811 14.5863 47.1944 14.5403C47.1076 14.4943 47.0119 14.4677 46.9139 14.4622ZM40.0074 20.7139L37.4666 20.2659L30.745 19.7102C30.5883 19.6826 30.427 19.7183 30.2966 19.8096C30.1663 19.9009 30.0775 20.0402 30.0499 20.1969C30.0223 20.3536 30.058 20.5149 30.1493 20.6453C30.2406 20.7756 30.3799 20.8644 30.5366 20.892C31.7694 21.2718 33.1307 21.6134 34.4183 21.9014L37.0205 22.4618L39.5987 22.9164C41.5872 23.1451 43.8418 23.2584 45.5974 23.4258C45.6907 23.4594 45.7901 23.4723 45.8889 23.4634C45.9876 23.4546 46.0832 23.4242 46.169 23.3745C46.2548 23.3249 46.3287 23.257 46.3855 23.1758C46.4423 23.0945 46.4806 23.0018 46.4979 22.9042C46.5151 22.8066 46.5107 22.7064 46.4851 22.6106C46.4595 22.5148 46.4133 22.4258 46.3497 22.3498C46.2861 22.2737 46.2066 22.2125 46.1169 22.1704C46.0271 22.1284 45.9292 22.1064 45.8301 22.1061C43.9064 21.573 41.9642 21.1086 40.0074 20.7139Z" fill="#FF9800"></path><path d="M53.5239 18.9969L54.8322 11.5773C54.9228 11.0074 54.8182 10.4236 54.5353 9.92062C53.3843 9.18256 52.1078 8.66152 50.7691 8.38326C48.4275 7.72668 45.2882 7.01066 42.964 6.60085C42.2353 6.47235 34.5971 5.12553 30.1104 4.67964C28.8432 4.45157 27.5423 4.49201 26.2917 4.79835C26.0854 4.92967 25.9242 5.1209 25.8295 5.34642C25.5032 6.14269 25.2554 6.96897 25.0899 7.81346C24.2886 11.2059 23.3343 16.9636 23.1147 18.3242C23.0997 18.4197 23.1052 18.5173 23.1309 18.6105C23.1566 18.7038 23.2019 18.7904 23.2638 18.8648C23.3256 18.9391 23.4026 18.9994 23.4896 19.0416C23.5766 19.0838 23.6716 19.107 23.7683 19.1096C23.9425 19.1404 24.1219 19.1021 24.2683 19.0027C24.4148 18.9034 24.5167 18.751 24.5526 18.5777C24.7366 17.5338 25.3753 13.9117 26.1183 10.7344C26.41 9.07994 26.8509 7.61626 27.1555 6.69516C27.2193 6.50821 27.2924 6.32454 27.3744 6.1448L28.0637 6.26636C29.2513 6.21174 31.1224 6.54167 33.1097 6.89209L42.6565 8.57544C44.5276 8.90537 47.0105 9.56657 49.101 10.1383C50.4554 10.5192 52.4625 11.2184 52.4984 11.245C52.5343 11.2717 51.597 16.9329 51.2176 18.509C51.0474 19.4741 50.6007 22.929 50.0766 25.9012C49.8092 27.4178 49.1623 30.1652 49.1322 30.2208C48.6725 30.1055 48.2051 30.0231 47.7337 29.9742L45.6459 29.6061C43.6957 29.1606 41.4673 28.5646 40.4327 28.4431C40.0059 28.3558 39.5618 28.4377 39.1942 28.6715C38.6243 29.1397 37.9065 30.3311 36.8095 31.5999C36.3129 32.1608 35.7674 32.6763 35.1792 33.1402C34.7077 33.5028 34.1661 33.7635 33.5887 33.906C33.0113 34.0486 32.4105 34.0698 31.8245 33.9683C31.8599 32.8575 32.5191 30.029 32.7584 28.672C32.8128 28.3958 32.8083 28.1113 32.7452 27.837C32.7231 27.7268 32.6724 27.6243 32.5981 27.5399C32.5239 27.4555 32.4287 27.3922 32.3222 27.3562C31.9086 27.2486 31.4871 27.1743 31.0617 27.134C30.6393 27.0356 30.2119 26.9603 29.7814 26.9082C29.7031 26.9038 29.6246 26.9159 29.5513 26.9438C29.4779 26.9716 29.4112 27.0146 29.3555 27.0699C29.2998 27.1251 29.2563 27.1915 29.2279 27.2647C29.1995 27.3378 29.1868 27.4162 29.1906 27.4945C29.187 27.5716 29.1988 27.6485 29.2252 27.7209C29.2517 27.7933 29.2923 27.8597 29.3448 27.9163C29.3972 27.9728 29.4604 28.0183 29.5306 28.0501C29.6008 28.0819 29.6767 28.0994 29.7538 28.1016C30.1267 28.1319 30.496 28.197 30.8568 28.296L31.5067 28.4106C31.0356 30.4238 30.6763 32.4616 30.4305 34.5145C30.4673 34.6541 30.538 34.7825 30.6362 34.8884C30.7344 34.9942 30.8571 35.0743 30.9936 35.1215C31.6179 35.3819 32.2875 35.4999 32.9632 35.4688C34.0709 35.393 35.1358 35.0113 36.0394 34.3662C36.7499 33.8768 37.3974 33.3141 37.9821 32.6779C38.9088 31.6837 39.5293 30.6985 40.0437 30.2003C41.0265 30.3736 43.0938 30.9615 44.9928 31.4791C46.0622 31.7489 47.1448 31.9398 48.2407 32.0518C48.9531 32.1687 49.6843 32.0558 50.3284 31.7294C51.0005 30.8829 51.4435 29.8777 51.6148 28.8105C52.5713 25.6891 53.2859 20.2546 53.5278 18.9976M25.5147 43.7349C24.818 41.9548 23.7061 40.3669 22.2716 39.1034C21.5725 38.5494 20.8098 38.0808 19.9995 37.7077C22.0978 36.8188 23.8908 35.3365 25.1585 33.4427C25.8849 32.5067 26.3902 31.4185 26.6368 30.2596C26.8833 29.1006 26.8647 27.901 26.5822 26.7503C25.9053 24.6001 18.4823 17.4261 11.107 24.0216C7.77962 27.0092 6.33855 31.7266 9.80815 35.3034C10.5076 36.0015 11.295 36.6034 12.1522 37.0977C9.36281 37.8876 6.83649 39.4115 4.83679 41.5105C4.21921 42.195 3.66977 42.9307 3.18845 43.7178C2.45001 44.8228 1.79737 45.9827 1.23628 47.1875C1.19541 47.2535 1.1682 47.3271 1.15628 47.4038C1.14435 47.4805 1.14796 47.5589 1.16688 47.6342C1.1858 47.7095 1.21964 47.7802 1.26641 47.8422C1.31318 47.9042 1.37192 47.9561 1.43914 47.995C1.58042 48.0643 1.74325 48.0752 1.89256 48.0256C2.04186 47.9759 2.16569 47.8696 2.23736 47.7296C2.76044 46.8132 3.32983 45.9259 3.94553 45.0678C4.54787 44.2086 5.23479 43.4226 6.0063 42.7098C8.09273 40.8398 10.6612 39.5916 13.4206 39.1065C15.5182 38.6732 17.7008 38.9662 19.6099 39.9372C21.519 40.9082 23.0412 42.4996 23.9264 44.45C25.0157 46.7158 25.7263 49.1448 26.0297 51.6405C26.0266 51.7371 26.0441 51.8332 26.0811 51.9224C26.118 52.0117 26.1736 52.0921 26.244 52.1582C26.3145 52.2243 26.3982 52.2746 26.4896 52.3058C26.5811 52.337 26.6781 52.3484 26.7743 52.3392C26.8704 52.33 26.9635 52.3004 27.0474 52.2523C27.1312 52.2043 27.2038 52.139 27.2604 52.0607C27.317 51.9824 27.3563 51.8929 27.3756 51.7983C27.3949 51.7036 27.3939 51.6059 27.3725 51.5117C27.1611 48.8387 26.5343 46.2149 25.5147 43.7349ZM12.3074 25.3908C18.6274 19.1373 24.7435 26.4667 24.8086 27.5951C24.9365 28.4532 24.892 29.3282 24.6775 30.1688C24.463 31.0094 24.0829 31.7988 23.5595 32.4906C22.1499 34.4661 20.0167 35.8047 17.6247 36.2146C16.4656 36.3398 15.2934 36.1908 14.2024 35.7798C13.1115 35.3687 12.1325 34.707 11.3442 33.8481C8.722 31.2127 10.0659 27.7373 12.3665 25.4013L12.3074 25.3908Z" fill="#FF9800"></path></g><defs><clipPath id="clip0_870_3250"><rect width="48" height="48" fill="white" transform="translate(8.75391 0.568237) rotate(10)"></rect></clipPath></defs></svg>